<?xml version="1.0" encoding="UTF-8"?><svg id="_イヤー_2" xmlns="http://www.w3.org/2000/svg" viewBox="0 0 219.23 57.98"><defs><style>.cls-1{fill:#00ff9f;}</style></defs><g id="_イヤー_1-2"><g><path class="cls-1" d="M7.75,57.98H0V9.93C0,3.31,3.1,0,9.29,0h5.81c6.19,0,9.29,3.31,9.29,9.93V57.98h-7.75v-21.24H7.75v21.24Zm8.88-28.26V10.42c0-2.26-1.13-3.39-3.39-3.39h-2.1c-2.26,0-3.39,1.13-3.39,3.39V29.71h8.88Z"/><path class="cls-1" d="M49.26,28.18c4.25,1.18,6.38,3.39,6.38,6.62v14.54c0,5.76-2.93,8.64-8.8,8.64h-15.58V0h13.24c6.89,0,10.34,3.5,10.34,10.5v11.14c0,3.34-1.86,5.38-5.57,6.14v.4Zm-10.25-3.71h3.63c2.96,0,4.44-1.4,4.44-4.2V11.22c0-2.8-1.16-4.2-3.47-4.2h-4.6V24.47Zm0,26.49h5.81c2.05,0,3.07-.83,3.07-2.5v-12.84c0-2.75-1.53-4.12-4.6-4.12h-4.28v19.46Z"/><path class="cls-1" d="M71.06,57.98c-6.25,0-9.37-3.28-9.37-9.85V9.93c0-6.62,3.1-9.93,9.29-9.93h7.43c6.19,0,9.29,3.31,9.29,9.93V48.13c0,6.57-3.12,9.85-9.37,9.85h-7.27Zm1.86-7.02h3.96c2.04,0,3.07-1.13,3.07-3.39V10.42c0-2.26-1.16-3.39-3.47-3.39h-3.63c-2.26,0-3.39,1.13-3.39,3.39V47.56c0,2.26,1.16,3.39,3.47,3.39Z"/><path class="cls-1" d="M119.75,0V47c0,7.32-3.12,10.98-9.37,10.98h-6.54c-6.19,0-9.29-3.69-9.29-11.06V0h7.75V47.16c0,2.53,1.13,3.8,3.39,3.8h3.15c2.1,0,3.15-1.27,3.15-3.8V0h7.75Z"/><path class="cls-1" d="M139.37,7.03V57.98h-7.75V7.03h-7.43V0h22.61V7.03h-7.43Z"/><path class="cls-1" d="M189.35,0V47c0,7.32-3.12,10.98-9.37,10.98h-6.54c-6.19,0-9.29-3.69-9.29-11.06V0h7.75V47.16c0,2.53,1.13,3.8,3.39,3.8h3.15c2.1,0,3.15-1.27,3.15-3.8V0h7.75Z"/><path class="cls-1" d="M211.47,15.58v-5.09c0-2.31-1.13-3.47-3.39-3.47h-1.21c-2.21,0-3.31,1.16-3.31,3.47v9.61c0,1.08,.21,1.8,.65,2.18s1.13,.86,2.1,1.45l7.35,3.96c1.61,.92,2.76,1.63,3.43,2.14,.67,.51,1.2,1.13,1.57,1.86,.38,.73,.57,2.11,.57,4.16v12.35c0,6.51-3.12,9.77-9.37,9.77h-4.76c-6.19,0-9.29-3.55-9.29-10.66v-2.91h7.75v3.15c0,2.26,1.16,3.39,3.47,3.39h1.37c2.04,0,3.07-1.13,3.07-3.39v-9.85c0-1.08-.22-1.8-.65-2.18-.43-.38-1.13-.86-2.1-1.45l-7.35-4.12c-1.61-.86-2.79-1.59-3.51-2.18-.73-.59-1.25-1.36-1.58-2.3-.32-.94-.48-2.17-.48-3.67V9.93c0-6.62,3.09-9.93,9.29-9.93h4.84c6.19,0,9.29,3.31,9.29,9.93v5.65h-7.75Z"/></g></g></svg>