<?xml version="1.0" encoding="UTF-8"?><svg id="_イヤー_2" xmlns="http://www.w3.org/2000/svg" viewBox="0 0 183.98 158.24"><defs><style>.cls-1{fill:#00ff9f;}</style></defs><g id="_イヤー_1-2"><g><g><path class="cls-1" d="M28.77,45.02c5.42-1.29,8.13-4.85,8.13-10.7V15.87C36.9,5.29,31.96,0,22.07,0h-7.23C4.95,0,0,5.29,0,15.87v10.32H12.39v-9.42c0-3.61,1.63-5.42,4.9-5.42h1.68c3.7,0,5.55,1.81,5.55,5.42v17.55c0,4.04-2.41,6.06-7.23,6.06h-1.8v10.45h3.35c4.82,0,7.23,2.02,7.23,6.06v19.1c0,3.61-1.86,5.42-5.55,5.42h-2.84c-3.27,0-4.9-1.81-4.9-5.42v-5.03H.39v5.93c0,10.5,4.95,15.74,14.84,15.74h8.38c9.89,0,14.84-5.24,14.84-15.74v-20.13c0-6.1-3.22-10.01-9.68-11.74Z"/><path class="cls-1" d="M70.96,0h-21.55V92.63h24.13c9.89,0,14.84-4.47,14.84-13.42V17.8c0-11.87-5.81-17.8-17.42-17.8Zm5.03,77.28c0,2.75-1.63,4.13-4.9,4.13h-9.29V11.22h8.64c3.7,0,5.55,2.24,5.55,6.71v59.35Z"/><path class="cls-1" d="M136.37,26.19V15.74c0-10.49-4.95-15.74-14.84-15.74h-8c-9.89,0-14.83,5.25-14.83,15.74v61.15c0,10.5,4.94,15.74,14.83,15.74h8c9.89,0,14.84-5.24,14.84-15.74v-5.93h-12.39v5.03c0,3.61-1.63,5.42-4.9,5.42h-3.09c-3.27,0-4.91-1.81-4.91-5.42V16.64c0-3.61,1.64-5.42,4.91-5.42h2.45c3.69,0,5.54,1.81,5.54,5.42v9.55h12.39Z"/><path class="cls-1" d="M183.98,26.19v-10.06c0-10.76-5.25-16.13-15.74-16.13h-8.52c-9.55,0-14.32,5.29-14.32,15.87v61.15c0,10.41,4.77,15.61,14.32,15.61h24.26V47.48h-18.84v11.22h6.45v22.71h-8.39c-3.61,0-5.41-2.24-5.41-6.71V17.93c0-4.47,1.8-6.71,5.41-6.71h3.1c3.53,0,5.29,2.24,5.29,6.71v8.26h12.39Z"/></g><g><path class="cls-1" d="M12.63,108.68h7.29c3.22,0,4.84,1.71,4.84,5.13v8.88c0,3.39-1.6,5.08-4.79,5.08h-3.34v10.84h-4v-29.93Zm4,15.46h2.54c1.06,0,1.58-.58,1.58-1.75v-8.34c0-1.17-.6-1.75-1.79-1.75h-2.33v11.84Z"/><path class="cls-1" d="M31.55,133.53v5.08h-4.25v-5.08h4.25Z"/><path class="cls-1" d="M34.68,108.68h7.84c3.06,0,4.58,1.71,4.58,5.13v7.38c0,2.61-.79,4.27-2.38,4.96l2.79,12.46h-3.79l-2.63-12.09h-2.42v12.09h-4v-29.93Zm4,14.42h2.63c1.19,0,1.79-.72,1.79-2.17v-6.46c0-1.44-.6-2.17-1.79-2.17h-2.63v10.8Z"/><path class="cls-1" d="M54.06,133.53v5.08h-4.25v-5.08h4.25Z"/><path class="cls-1" d="M57.19,138.61v-29.93h9.92v3.63h-5.92v9.09h5.25v3.63h-5.25v9.96h5.92v3.63h-9.92Z"/><path class="cls-1" d="M73.61,133.53v5.08h-4.25v-5.08h4.25Z"/><path class="cls-1" d="M84.4,116.73v-2.63c0-1.19-.58-1.79-1.75-1.79h-.62c-1.14,0-1.71,.6-1.71,1.79v4.96c0,.56,.11,.93,.33,1.13,.22,.19,.58,.44,1.08,.75l3.79,2.04c.83,.47,1.42,.84,1.77,1.1,.35,.26,.62,.58,.81,.96,.19,.38,.29,1.09,.29,2.15v6.38c0,3.36-1.61,5.04-4.84,5.04h-2.46c-3.2,0-4.79-1.83-4.79-5.5v-1.5h4v1.63c0,1.17,.6,1.75,1.79,1.75h.71c1.06,0,1.58-.58,1.58-1.75v-5.08c0-.56-.11-.93-.33-1.13-.22-.19-.58-.44-1.08-.75l-3.79-2.13c-.83-.44-1.44-.82-1.81-1.13-.38-.31-.64-.7-.81-1.19-.17-.49-.25-1.12-.25-1.9v-6.13c0-3.42,1.6-5.13,4.79-5.13h2.5c3.2,0,4.79,1.71,4.79,5.13v2.92h-4Z"/><path class="cls-1" d="M95.37,133.53v5.08h-4.25v-5.08h4.25Z"/><path class="cls-1" d="M98.49,138.61v-29.93h9.92v3.63h-5.92v9.09h5.25v3.63h-5.25v9.96h5.92v3.63h-9.92Z"/><path class="cls-1" d="M114.91,133.53v5.08h-4.25v-5.08h4.25Z"/><path class="cls-1" d="M126.33,123.15v-14.46h4v29.93h-4v-5.96l-4.29-13.63v19.59h-4v-29.93h4l4.29,14.46Z"/><path class="cls-1" d="M137.71,133.53v5.08h-4.25v-5.08h4.25Z"/><path class="cls-1" d="M147.22,112.31v26.3h-4v-26.3h-3.83v-3.63h11.67v3.63h-3.83Z"/><path class="cls-1" d="M156.97,133.53v5.08h-4.25v-5.08h4.25Z"/><path class="cls-1" d="M167.76,116.73v-2.63c0-1.19-.58-1.79-1.75-1.79h-.62c-1.14,0-1.71,.6-1.71,1.79v4.96c0,.56,.11,.93,.33,1.13,.22,.19,.58,.44,1.08,.75l3.79,2.04c.83,.47,1.42,.84,1.77,1.1,.35,.26,.62,.58,.81,.96,.19,.38,.29,1.09,.29,2.15v6.38c0,3.36-1.61,5.04-4.84,5.04h-2.46c-3.2,0-4.79-1.83-4.79-5.5v-1.5h4v1.63c0,1.17,.6,1.75,1.79,1.75h.71c1.06,0,1.58-.58,1.58-1.75v-5.08c0-.56-.11-.93-.33-1.13-.22-.19-.58-.44-1.08-.75l-3.79-2.13c-.83-.44-1.44-.82-1.81-1.13-.38-.31-.64-.7-.81-1.19-.17-.49-.25-1.12-.25-1.9v-6.13c0-3.42,1.6-5.13,4.79-5.13h2.5c3.2,0,4.79,1.71,4.79,5.13v2.92h-4Z"/></g><rect class="cls-1" x="56.88" y="156.24" width="70.21" height="2"/></g></g></svg>