<?xml version="1.0" encoding="UTF-8"?><svg id="_イヤー_2" xmlns="http://www.w3.org/2000/svg" viewBox="0 0 159.13 157.24"><defs><style>.cls-1{fill:#00ff9f;}</style></defs><g id="_イヤー_1-2"><g><g><path class="cls-1" d="M0,107.69H7.29c3.22,0,4.84,1.71,4.84,5.13v8.88c0,3.39-1.6,5.09-4.79,5.09h-3.34v10.84H0v-29.93Zm4,15.46h2.54c1.06,0,1.58-.58,1.58-1.75v-8.34c0-1.17-.6-1.75-1.79-1.75h-2.33v11.84Z"/><path class="cls-1" d="M18.92,132.53v5.08h-4.25v-5.08h4.25Z"/><path class="cls-1" d="M22.05,107.69h7.84c3.06,0,4.58,1.71,4.58,5.13v7.38c0,2.61-.79,4.27-2.38,4.96l2.79,12.46h-3.79l-2.63-12.09h-2.42v12.09h-4v-29.93Zm4,14.42h2.63c1.19,0,1.79-.72,1.79-2.17v-6.46c0-1.44-.6-2.17-1.79-2.17h-2.63v10.8Z"/><path class="cls-1" d="M41.43,132.53v5.08h-4.25v-5.08h4.25Z"/><path class="cls-1" d="M44.55,137.61v-29.93h9.92v3.63h-5.92v9.09h5.25v3.62h-5.25v9.96h5.92v3.63h-9.92Z"/><path class="cls-1" d="M60.98,132.53v5.08h-4.25v-5.08h4.25Z"/><path class="cls-1" d="M71.77,115.73v-2.63c0-1.19-.58-1.79-1.75-1.79h-.62c-1.14,0-1.71,.6-1.71,1.79v4.96c0,.56,.11,.93,.33,1.13,.22,.19,.58,.44,1.08,.75l3.79,2.04c.83,.47,1.42,.84,1.77,1.1,.35,.26,.62,.58,.81,.96,.19,.38,.29,1.09,.29,2.15v6.38c0,3.36-1.61,5.04-4.84,5.04h-2.46c-3.2,0-4.79-1.83-4.79-5.5v-1.5h4v1.63c0,1.17,.6,1.75,1.79,1.75h.71c1.06,0,1.58-.58,1.58-1.75v-5.08c0-.56-.11-.93-.33-1.12-.22-.2-.58-.45-1.08-.75l-3.79-2.13c-.83-.44-1.44-.82-1.81-1.12-.38-.31-.64-.7-.81-1.19-.17-.49-.25-1.12-.25-1.9v-6.13c0-3.42,1.6-5.13,4.79-5.13h2.5c3.2,0,4.79,1.71,4.79,5.13v2.92h-4Z"/><path class="cls-1" d="M82.73,132.53v5.08h-4.25v-5.08h4.25Z"/><path class="cls-1" d="M85.86,137.61v-29.93h9.92v3.63h-5.92v9.09h5.25v3.62h-5.25v9.96h5.92v3.63h-9.92Z"/><path class="cls-1" d="M102.28,132.53v5.08h-4.25v-5.08h4.25Z"/><path class="cls-1" d="M113.7,122.15v-14.46h4v29.93h-4v-5.96l-4.29-13.63v19.59h-4v-29.93h4l4.29,14.46Z"/><path class="cls-1" d="M125.08,132.53v5.08h-4.25v-5.08h4.25Z"/><path class="cls-1" d="M134.58,111.31v26.3h-4v-26.3h-3.83v-3.63h11.67v3.63h-3.83Z"/><path class="cls-1" d="M144.34,132.53v5.08h-4.25v-5.08h4.25Z"/><path class="cls-1" d="M155.13,115.73v-2.63c0-1.19-.58-1.79-1.75-1.79h-.62c-1.14,0-1.71,.6-1.71,1.79v4.96c0,.56,.11,.93,.33,1.13,.22,.19,.58,.44,1.08,.75l3.79,2.04c.83,.47,1.42,.84,1.77,1.1,.35,.26,.62,.58,.81,.96,.19,.38,.29,1.09,.29,2.15v6.38c0,3.36-1.61,5.04-4.84,5.04h-2.46c-3.2,0-4.79-1.83-4.79-5.5v-1.5h4v1.63c0,1.17,.6,1.75,1.79,1.75h.71c1.06,0,1.58-.58,1.58-1.75v-5.08c0-.56-.11-.93-.33-1.12-.22-.2-.58-.45-1.08-.75l-3.79-2.13c-.83-.44-1.44-.82-1.81-1.12-.38-.31-.64-.7-.81-1.19-.17-.49-.25-1.12-.25-1.9v-6.13c0-3.42,1.6-5.13,4.79-5.13h2.5c3.2,0,4.79,1.71,4.79,5.13v2.92h-4Z"/></g><rect class="cls-1" x="44.46" y="155.24" width="70.21" height="2"/><g><path class="cls-1" d="M53.7,54.44L65.18,0h13.68V92.63h-12.39l1.29-60.64-9.29,43.87h-9.55l-9.29-43.87,1.29,60.64h-12.39V0h13.68l11.48,54.44Z"/><path class="cls-1" d="M130.59,0l-14.97,92.63h-14.71L85.95,0h12.26l10.06,70.7L118.33,0h12.26Z"/></g></g></g></svg>