<?xml version="1.0" encoding="UTF-8"?><svg id="_イヤー_2" xmlns="http://www.w3.org/2000/svg" viewBox="0 0 156.71 24.31"><defs><style>.cls-1{fill:#00ff9f;}.cls-2{fill:#00cf81;}.cls-3{fill:#006e44;}</style></defs><g id="_イヤー_1-2"><g><path class="cls-1" d="M3.25,21.37V0H0V24.31H7.72v-2.94H3.25Z"/><path class="cls-1" d="M17.64,2.95V0H9.58V24.31h8.06v-2.94h-4.81V13.27h4.27v-2.94h-4.27V2.95h4.81Z"/><path class="cls-1" d="M26.14,0h-2.44c-2.6,0-3.89,1.39-3.89,4.17V24.31h3.25V15.41h3.72v8.9h3.25V4.17c0-2.78-1.29-4.17-3.89-4.17Zm.64,12.46h-3.72V4.37c0-.95,.47-1.42,1.42-1.42h.88c.95,0,1.42,.47,1.42,1.42V12.46Z"/><path class="cls-1" d="M41.07,14.19c1.29-.56,1.93-1.91,1.93-4.03V4.17c0-2.78-1.24-4.17-3.72-4.17h-6.37V24.31h3.25V14.49h1.97l2.13,9.82h3.08l-2.27-10.12Zm-1.32-4.23c0,1.17-.48,1.76-1.45,1.76h-2.14V2.95h2.14c.97,0,1.45,.58,1.45,1.76v5.25Z"/><path class="cls-1" d="M52.45,0V11.75L48.96,0h-3.25V24.31h3.25V8.4l3.49,11.07v4.84h3.25V0h-3.25Z"/><path class="cls-1" d="M73.79,0l-3.02,14.29-3.01-14.29h-3.59V24.31h3.25l-.34-15.91,2.44,11.51h2.51l2.43-11.51-.33,15.91h3.25V0h-3.59Z"/><path class="cls-1" d="M87.26,0h-3.11c-2.6,0-3.9,1.39-3.9,4.17V20.18c0,2.76,1.31,4.13,3.93,4.13h3.05c2.62,0,3.93-1.37,3.93-4.13V4.17c0-2.78-1.3-4.17-3.9-4.17Zm.65,19.95c0,.95-.43,1.42-1.29,1.42h-1.66c-.97,0-1.45-.47-1.45-1.42V4.37c0-.95,.47-1.42,1.42-1.42h1.52c.97,0,1.46,.47,1.46,1.42v15.58Z"/><path class="cls-1" d="M102.2,14.19c1.29-.56,1.93-1.91,1.93-4.03V4.17c0-2.78-1.24-4.17-3.73-4.17h-6.36V24.31h3.25V14.49h1.96l2.14,9.82h3.08l-2.27-10.12Zm-1.32-4.23c0,1.17-.49,1.76-1.46,1.76h-2.13V2.95h2.13c.97,0,1.46,.58,1.46,1.76v5.25Z"/><path class="cls-1" d="M114.9,2.95V0h-8.06V24.31h8.06v-2.94h-4.81V13.27h4.27v-2.94h-4.27V2.95h4.81Z"/></g><polygon class="cls-1" points="134.71 12.58 124.9 22.39 124.71 22.2 124.71 17.27 129.41 12.58 124.71 7.88 124.71 2.95 124.9 2.77 134.71 12.58"/><polygon class="cls-2" points="145.71 12.58 135.9 22.39 135.71 22.2 135.71 17.27 140.41 12.58 135.71 7.88 135.71 2.95 135.9 2.77 145.71 12.58"/><polygon class="cls-3" points="156.71 12.58 146.9 22.39 146.71 22.2 146.71 17.27 151.41 12.58 146.71 7.88 146.71 2.95 146.9 2.77 156.71 12.58"/></g></svg>