<?xml version="1.0" encoding="UTF-8"?><svg id="_イヤー_2" xmlns="http://www.w3.org/2000/svg" viewBox="0 0 155.19 24.31"><defs><style>.cls-1{fill:#00ff9f;}.cls-2{fill:#00cf81;}.cls-3{fill:#006e44;}</style></defs><g id="_イヤー_1-2"><g><path class="cls-1" d="M43.54,21.37V0h-3.25V24.31h7.72v-2.94h-4.47Z"/><path class="cls-1" d="M57.93,2.95V0h-8.06V24.31h8.06v-2.94h-4.81V13.27h4.27v-2.94h-4.27V2.95h4.81Z"/><path class="cls-1" d="M66.43,0h-2.44c-2.6,0-3.89,1.39-3.89,4.17V24.31h3.25V15.41h3.72v8.9h3.25V4.17c0-2.78-1.29-4.17-3.89-4.17Zm.64,12.46h-3.72V4.37c0-.95,.47-1.42,1.42-1.42h.88c.95,0,1.42,.47,1.42,1.42V12.46Z"/><path class="cls-1" d="M81.36,14.19c1.29-.56,1.93-1.91,1.93-4.03V4.17c0-2.78-1.24-4.17-3.72-4.17h-6.37V24.31h3.25V14.49h1.97l2.13,9.82h3.08l-2.27-10.12Zm-1.32-4.23c0,1.17-.48,1.76-1.45,1.76h-2.14V2.95h2.14c.97,0,1.45,.58,1.45,1.76v5.25Z"/><path class="cls-1" d="M92.74,0V11.75l-3.49-11.75h-3.25V24.31h3.25V8.4l3.49,11.07v4.84h3.25V0h-3.25Z"/><path class="cls-1" d="M114.08,0l-3.02,14.29-3.01-14.29h-3.59V24.31h3.25l-.34-15.91,2.44,11.51h2.51l2.43-11.51-.33,15.91h3.25V0h-3.59Z"/><path class="cls-1" d="M127.55,0h-3.11c-2.6,0-3.9,1.39-3.9,4.17V20.18c0,2.76,1.31,4.13,3.93,4.13h3.05c2.62,0,3.93-1.37,3.93-4.13V4.17c0-2.78-1.3-4.17-3.9-4.17Zm.65,19.95c0,.95-.43,1.42-1.29,1.42h-1.66c-.97,0-1.45-.47-1.45-1.42V4.37c0-.95,.47-1.42,1.42-1.42h1.52c.97,0,1.46,.47,1.46,1.42v15.58Z"/><path class="cls-1" d="M142.49,14.19c1.29-.56,1.93-1.91,1.93-4.03V4.17c0-2.78-1.24-4.17-3.73-4.17h-6.36V24.31h3.25V14.49h1.96l2.14,9.82h3.08l-2.27-10.12Zm-1.32-4.23c0,1.17-.49,1.76-1.46,1.76h-2.13V2.95h2.13c.97,0,1.46,.58,1.46,1.76v5.25Z"/><path class="cls-1" d="M155.19,2.95V0h-8.06V24.31h8.06v-2.94h-4.81V13.27h4.27v-2.94h-4.27V2.95h4.81Z"/></g><g><g><polygon class="cls-1" points="22 12.58 31.81 2.77 32 2.95 32 7.88 27.3 12.58 32 17.27 32 22.2 31.81 22.39 22 12.58"/><polygon class="cls-2" points="11 12.58 20.81 2.77 21 2.95 21 7.88 16.3 12.58 21 17.27 21 22.2 20.81 22.39 11 12.58"/></g><polygon class="cls-3" points="0 12.58 9.81 2.77 10 2.95 10 7.88 5.3 12.58 10 17.27 10 22.2 9.81 22.39 0 12.58"/></g></g></svg>