<?xml version="1.0" encoding="UTF-8"?><svg id="_イヤー_2" xmlns="http://www.w3.org/2000/svg" viewBox="0 0 159.13 154.24"><defs><style>.cls-1{fill:#00ff9f;}</style></defs><g id="_イヤー_1-2"><g><g><path class="cls-1" d="M0,104.69H7.29c3.22,0,4.84,1.71,4.84,5.13v8.88c0,3.39-1.6,5.09-4.79,5.09h-3.34v10.84H0v-29.93Zm4,15.46h2.54c1.06,0,1.58-.58,1.58-1.75v-8.34c0-1.17-.6-1.75-1.79-1.75h-2.33v11.84Z"/><path class="cls-1" d="M18.92,129.53v5.08h-4.25v-5.08h4.25Z"/><path class="cls-1" d="M22.05,104.69h7.84c3.06,0,4.58,1.71,4.58,5.13v7.38c0,2.61-.79,4.27-2.38,4.96l2.79,12.46h-3.79l-2.63-12.09h-2.42v12.09h-4v-29.93Zm4,14.42h2.63c1.19,0,1.79-.72,1.79-2.17v-6.46c0-1.44-.6-2.17-1.79-2.17h-2.63v10.8Z"/><path class="cls-1" d="M41.43,129.53v5.08h-4.25v-5.08h4.25Z"/><path class="cls-1" d="M44.55,134.61v-29.93h9.92v3.63h-5.92v9.09h5.25v3.62h-5.25v9.96h5.92v3.63h-9.92Z"/><path class="cls-1" d="M60.98,129.53v5.08h-4.25v-5.08h4.25Z"/><path class="cls-1" d="M71.77,112.73v-2.63c0-1.19-.58-1.79-1.75-1.79h-.62c-1.14,0-1.71,.6-1.71,1.79v4.96c0,.56,.11,.93,.33,1.13,.22,.19,.58,.44,1.08,.75l3.79,2.04c.83,.47,1.42,.84,1.77,1.1,.35,.26,.62,.58,.81,.96,.19,.38,.29,1.09,.29,2.15v6.38c0,3.36-1.61,5.04-4.84,5.04h-2.46c-3.2,0-4.79-1.83-4.79-5.5v-1.5h4v1.63c0,1.17,.6,1.75,1.79,1.75h.71c1.06,0,1.58-.58,1.58-1.75v-5.08c0-.56-.11-.93-.33-1.12-.22-.2-.58-.45-1.08-.75l-3.79-2.13c-.83-.44-1.44-.82-1.81-1.12-.38-.31-.64-.7-.81-1.19-.17-.49-.25-1.12-.25-1.9v-6.13c0-3.42,1.6-5.13,4.79-5.13h2.5c3.2,0,4.79,1.71,4.79,5.13v2.92h-4Z"/><path class="cls-1" d="M82.73,129.53v5.08h-4.25v-5.08h4.25Z"/><path class="cls-1" d="M85.86,134.61v-29.93h9.92v3.63h-5.92v9.09h5.25v3.62h-5.25v9.96h5.92v3.63h-9.92Z"/><path class="cls-1" d="M102.28,129.53v5.08h-4.25v-5.08h4.25Z"/><path class="cls-1" d="M113.7,119.15v-14.46h4v29.93h-4v-5.96l-4.29-13.63v19.59h-4v-29.93h4l4.29,14.46Z"/><path class="cls-1" d="M125.08,129.53v5.08h-4.25v-5.08h4.25Z"/><path class="cls-1" d="M134.58,108.31v26.3h-4v-26.3h-3.83v-3.63h11.67v3.63h-3.83Z"/><path class="cls-1" d="M144.34,129.53v5.08h-4.25v-5.08h4.25Z"/><path class="cls-1" d="M155.13,112.73v-2.63c0-1.19-.58-1.79-1.75-1.79h-.62c-1.14,0-1.71,.6-1.71,1.79v4.96c0,.56,.11,.93,.33,1.13,.22,.19,.58,.44,1.08,.75l3.79,2.04c.83,.47,1.42,.84,1.77,1.1,.35,.26,.62,.58,.81,.96,.19,.38,.29,1.09,.29,2.15v6.38c0,3.36-1.61,5.04-4.84,5.04h-2.46c-3.2,0-4.79-1.83-4.79-5.5v-1.5h4v1.63c0,1.17,.6,1.75,1.79,1.75h.71c1.06,0,1.58-.58,1.58-1.75v-5.08c0-.56-.11-.93-.33-1.12-.22-.2-.58-.45-1.08-.75l-3.79-2.13c-.83-.44-1.44-.82-1.81-1.12-.38-.31-.64-.7-.81-1.19-.17-.49-.25-1.12-.25-1.9v-6.13c0-3.42,1.6-5.13,4.79-5.13h2.5c3.2,0,4.79,1.71,4.79,5.13v2.92h-4Z"/></g><rect class="cls-1" x="44.25" y="152.24" width="70.21" height="2"/><g><path class="cls-1" d="M27.62,92.63H15.24V15.87C15.24,5.29,20.18,0,30.07,0h9.29c9.89,0,14.84,5.29,14.84,15.87V92.63h-12.39V58.7h-14.19v33.93Zm14.19-45.15V16.64c0-3.61-1.81-5.42-5.42-5.42h-3.35c-3.61,0-5.42,1.81-5.42,5.42v30.83h14.19Z"/><path class="cls-1" d="M65.16,0h24.25c9.46,0,14.19,5.29,14.19,15.87v22.84c0,8.09-2.45,13.2-7.35,15.35l8.64,38.58h-11.74l-8.13-37.41h-7.48v37.41h-12.39V0Zm12.39,44.64h8.13c3.7,0,5.55-2.24,5.55-6.71V17.93c0-4.47-1.85-6.71-5.55-6.71h-8.13V44.64Z"/><path class="cls-1" d="M133.67,11.22V92.63h-12.39V11.22h-11.87V0h36.12V11.22h-11.87Z"/></g></g></g></svg>