<?xml version="1.0" encoding="UTF-8"?><svg id="_イヤー_2" xmlns="http://www.w3.org/2000/svg" viewBox="0 0 725.11 432.05"><defs><style>.cls-1{fill:#00ff9f;}</style></defs><g id="_イヤー_1-2"><path class="cls-1" d="M712.84,10.45h-51V5.45l-14.33,5h-67.79l-5.83,5.83h-103.88l-5.84-5.83h-63.33l-5.37-5.37-5.36,5.37h-129.51l-3.38,3.38h-11.38V4.72h-26.73l-13.27-4.72h-36.45s-10.45,10.35-10.45,10.45H53.84l-4.5,4.5L37.34,2.95l-7.5,7.5H12.22V113.38L0,125.61v130.84H17.98l-5.76,5.76v159.24h52.91l3.85,3.86h98.86l3.86-3.86h149.24l4.45-4.45h37.17l4.45,4.45h147.64l10.59,10.6v-19.6l9,9h190.87V22.72l-12.27-12.27ZM11.34,244.45c-1.38,0-2.5-1.12-2.5-2.5s1.12-2.5,2.5-2.5,2.5,1.12,2.5,2.5-1.12,2.5-2.5,2.5Zm0-10c-1.38,0-2.5-1.12-2.5-2.5s1.12-2.5,2.5-2.5,2.5,1.12,2.5,2.5-1.12,2.5-2.5,2.5ZM56.84,14.45h-2v-2h2v2Zm3,0h-2v-2h2v2Zm3,0h-2v-2h2v2Zm107.5-6c-.83,0-1.5-.67-1.5-1.5s.67-1.5,1.5-1.5,1.5,.67,1.5,1.5-.67,1.5-1.5,1.5Zm53.5,3h-2V7.45h2v4Zm18,0h-16V7.45h16v4Zm134,408h-2v-3h2v3Zm66,0h-64v-3h64v3Zm81,6c-.55,0-1-.45-1-1s.45-1,1-1,1,.45,1,1-.45,1-1,1ZM583.34,15.45c-.83,0-1.5-.67-1.5-1.5s.67-1.5,1.5-1.5,1.5,.67,1.5,1.5-.67,1.5-1.5,1.5Zm8,0c-.83,0-1.5-.67-1.5-1.5s.67-1.5,1.5-1.5,1.5,.67,1.5,1.5-.67,1.5-1.5,1.5Zm131.5,96h-4v-1h4v1Zm0-3h-4v-2h4v2Zm0-4h-4v-39h4v39Zm0-41h-4v-4h4v4Z"/></g></svg>